<svg xmlns="http://www.w3.org/2000/svg" viewBox="0 0 336 203" width="336" height="203"><style>tspan { white-space:pre }.shp0 { fill: #0288D1 } </style><g ><g ><path fill-rule="evenodd" class="shp0" d="M334.99 191.53C333.42 189.2 332.13 186.16 329.29 184.68C322.88 179.97 316.27 183.83 308.91 181.35C305.96 180.68 303.35 179.2 300.78 177.59L297.84 175.87C297.84 175.87 297.84 178.82 299.88 181.08C301.92 183.35 312.07 187.76 308.46 202.55C304.43 200.96 300.91 198.08 298.53 194.29L297.39 192.38C297.39 192.38 294.95 187.95 296.69 179.54C295.5 174.64 291.57 170.73 287.34 167.87C288.66 171.26 289.33 174.49 288.38 178.4C286.24 186.2 289.23 193.63 289.94 201.1C289 201.14 288.38 200.05 287.66 199.28C285.34 195.67 284.63 191.67 284.59 187.39C281.35 193.73 274.75 198.05 267.62 197.57C267.76 195.2 268.95 192.77 269.99 190.49C272.75 185.53 277.92 183.54 283.1 183.06C284.34 182.39 284.87 180.77 285.53 179.54C287.05 174.97 286.01 169.73 282.53 166.5C277.55 163.12 270.71 161.59 265.1 164.93C261.77 166.22 258.4 167.5 255.07 168.78C259.92 168.69 266 170.4 270.9 168.45C273.17 168.64 275.46 168.16 277.73 167.98C278.16 168.26 277.69 168.69 277.64 169.02C270.99 176.07 259.4 174.73 250.37 173.69C244.86 171.69 223.92 174 218.22 174.72L218.02 174.95C224.86 175.47 231.05 177.61 236.7 180.89C240.12 182.42 243.87 182.19 247.66 181.71C247.53 182.61 246.29 183.04 245.59 183.61C241.69 186.57 235.89 187.22 231.14 185.71C224.3 183.47 218.68 178.28 211.75 176.42C209.2 176.1 204.52 177.11 201.67 177.92C189.41 181.63 187.04 180.77 176.39 188.34C172.54 191.77 169.69 196.2 168.18 200.9L167.84 200.9C164.61 195.86 160.49 189.45 154.4 188.11C153.73 187.77 150.41 187.42 150.41 187.42C143.75 187.29 139.75 186.45 133.61 184.58C130.29 183.45 127.33 181.45 124.11 180.07C121.28 179.35 118.85 180.9 116.77 182.59C108.75 187.6 96.72 189.16 87.45 186.02C87.43 186.01 88.32 185.35 89.46 185.05C97.82 184.65 103.46 179.53 110.9 177.15C112.5 176.76 114.25 176.76 115.92 176.56C113.38 174.36 110.16 173.37 107.22 172.03C103.08 170.48 96.24 168.39 91.63 169.91C82.59 172.86 78.23 184.49 67.3 180.21C68.08 179.24 69.5 179 70.57 178.4C72.61 176.67 75.17 174.92 76.43 172.51C78.47 169.3 81.55 167.64 84.8 166.29C78.12 165.67 72.98 165.69 66.75 167.78C66.75 167.78 63.12 168.85 61.87 170.43C60.63 172.02 59.27 173.72 61.08 178.7C62.89 183.69 64.36 187.77 63.34 191.73C62.33 195.7 58.25 202.27 58.25 202.27C58.25 202.27 58.93 194.57 57.12 191.06C55.31 187.54 53.04 180.74 54.07 177.79C55.08 174.86 57.79 169.64 58.93 168.5C58.93 168.5 54.29 169.53 52.03 173.38C49.77 177.23 49.77 178.48 50.67 186.63C51.58 194.79 50.45 200.8 49.65 202.16C49.65 202.16 48.07 200.11 47.73 197.74C47.39 195.36 46.77 191.23 46.77 191.23C44.61 187.23 43.64 182.81 44.47 178.12L44.38 178.11C42.64 183.94 40.26 190.04 34.38 192.89C30.71 195.25 25.92 192.43 22.57 195.68C23.26 192.26 26.83 189.95 29.95 188.59C35.29 187.54 40.47 183.26 41.44 177.86C39.75 179.15 37.91 179.84 36.24 181.03C30.88 184.77 24.55 183.99 18.15 183.52C15.79 183.68 13.7 184.73 11.59 185.63C11.19 185.39 11.53 184.95 11.47 184.61C13.51 180.25 18.82 179.05 23.17 178.7C18.65 176.77 13.19 177.29 8.26 176.86C9.7 174.77 12.49 174.62 14.76 174.07C22.07 172.43 29.69 175.58 37.05 176.1C42.48 174.62 48.32 171.33 51.49 166.28C50.09 164.3 48.14 163.02 45.69 162.73C41.11 165.08 36.97 168.57 32.03 169.95C29.49 170.42 26.09 170.41 24.14 168.7C25.64 168.11 27.3 167.86 28.87 167.43C30.5 166.61 31.94 165.35 33.29 164.02C36.47 160.89 40.48 160.59 44.42 160.05L44.15 159.53C41.88 158.41 39.66 157 37.41 156.21C36.37 157.67 34.81 158.83 33.12 159.3C30.39 159.37 28.8 156.6 27 154.81L26.9 154.88C28.36 157.11 29.21 159.61 28.17 162.41C27.93 163.68 26.52 163.41 25.8 164.29C22.79 163.36 21.74 167.13 18.78 166.25C17.66 166.36 17 165.13 15.99 165.59C13.66 165.84 11.18 164.59 9.95 162.35C9.15 159.81 10.09 157.09 11.14 155.01C9.74 155.95 8.14 156.2 6.5 156.29C4.55 156.21 3.22 154.9 1.87 153.69C0.45 152.8 0.11 151.18 0.39 149.59C-0.44 148.53 0.61 147.31 0.47 146.05C0 144.31 1.06 142.62 2.08 141.3C3.68 140.29 5.33 139.57 7.27 139.85C6.27 138.96 5.96 137.44 5.37 136.37C5.4 135.31 5.77 134.16 6.45 133.28C6.64 130.86 9.01 129.79 10.78 128.52C13.51 126.87 17.74 127.13 20.39 128.58C22.89 130.55 22.6 133.87 22.89 136.69C23.68 134.86 23.61 132.6 25.16 131.21C27.28 129.77 29.91 130.61 32 131.57C35.4 133.21 37.11 136.57 37.21 140.23C37.06 142.37 35.09 143.67 33.28 144.37C34.31 144.58 35.54 143.97 36.71 144.53C38.36 147.21 39.35 150.25 38.64 153.48C41.9 155.82 45.43 157.58 49.12 159.11L49.39 158.9C47.54 156.77 45.08 155.62 43.49 153.28C41.21 149.85 39.95 145.48 41.5 141.64C41.95 141.06 42.3 140.1 43.16 140.11C45.52 147.33 50.08 155.05 56.14 160.03C56.56 160.17 57.19 160.92 57.66 160.54C55.31 156.53 56.04 154.54 54.07 150.43C53.47 148.9 52.41 146.6 52.2 144.93C52.2 144.93 51.32 141.34 46.49 136.81C42.26 132.84 35.63 127.74 35.63 127.74C35.63 127.74 44.58 129.48 48.3 131.68C53.43 134.7 54.42 137.11 54.98 141.95C55.16 143.44 54.97 144.97 55.64 146.26C55.93 146.3 56.19 146.43 56.37 146.15C58.41 143.47 56.73 140.25 57.17 137.24C57.32 131.03 62.58 126.89 68.02 124.95L68.82 124.67C68.89 127.75 68.06 131.24 67.27 134.3C66.08 138.81 61.63 141.22 59.76 145.4C57.84 151.65 60.56 157.86 65.13 161.75C67.03 163.04 67.92 163.17 67.92 163.17C75.85 162.65 88.81 163.08 96.61 164.02L88.33 160.12C84.55 158.33 82.13 154.94 80.35 151.33L81.24 150.88C84.92 150.24 89.74 153.49 92.93 155.1C102.5 161.76 100.71 165.7 111.23 169.28C111.23 169.28 116.32 170.83 118.62 171.76C123.65 174.52 129.09 176.73 133.92 179.43C132.35 177.72 130.44 175.97 129.85 173.71C129.14 170.64 126.17 168.53 124.48 165.87C124.66 165.49 125.09 165.61 125.36 165.41C128.86 166.31 132.45 168.68 134.46 171.85C137.01 174.62 136.71 178.73 138.89 181.66C143.95 183.48 149.46 183.77 155.01 183.74L156.46 183.62C152.66 178.54 147.08 174.2 142.52 170.07C137.1 166.26 132.04 160.47 125.43 159.56C118.12 160.04 111.23 158.71 106.85 152.81L107.09 152.57C111.8 154.9 116.83 152.9 121.92 153.85C115.41 149.48 104.84 142.5 97.53 140.16C89.5 139.22 78.87 138.46 75.88 129.75C75.88 129.42 76.71 130.03 76.91 129.89C82.6 133.32 88.44 134.05 95.1 134.58L94.81 134.33C94.81 134.33 91.67 132.72 87.39 129.06C83.11 125.41 75.82 120.02 75.82 120.02C73.44 118.59 69.64 118.27 66.64 118.75C63.62 119.22 55.54 123.83 52.05 125.41C48.57 127.01 42.86 126.52 42.86 126.52C45.87 126.05 50 123.98 52.21 122.24C54.43 120.49 56.34 117.96 57.92 116.84C59.5 115.73 64.89 113.36 64.89 113.36C62.04 112.08 56.49 110.65 53.16 110.34C49.84 110.02 45.71 110.81 44.44 111.3C43.18 111.77 42.71 116.21 41.91 117.64C41.12 119.06 36.05 121.92 34.31 122.4C32.57 122.87 30.51 127.48 30.51 127.48C30.51 127.48 30.35 125.25 30.82 122.87C31.3 120.49 33.83 118.75 34.78 117.79C35.73 116.84 37.95 114.46 37.95 114.46C36.69 114.46 36.37 114.94 33.68 115.89C30.98 116.85 29.56 117.16 26.38 116.37C23.22 115.57 19.42 112.72 18.15 112.24C16.88 111.77 14.66 112.56 14.66 112.56C14.66 112.56 15.14 110.66 17.35 110.66C19.57 110.66 21.95 111.93 24.17 112.56C26.38 113.2 30.03 112.4 30.03 112.4L28.76 111.46C26.23 112.08 24.33 111.3 21.63 109.86C18.94 108.44 16.56 103.99 15.93 102.72C15.29 101.45 13.87 98.91 13.87 98.91C19.09 99.06 21.32 100.66 24.01 102.57C26.7 104.47 30.51 109.07 30.51 109.07C30.51 109.07 31.14 109.86 33.99 110.81C36.84 111.77 37.79 110.81 40.33 109.38C42.86 107.96 48.88 106.85 48.88 106.85C48.88 106.85 46.83 104.62 45.24 104.15C43.66 103.68 40.96 102.72 36.84 99.23C32.72 95.74 30.66 91.61 30.66 91.61C30.66 91.61 32.4 93.04 34.78 95.26C37.16 97.48 40.01 98.44 43.82 98.91C47.61 99.39 52.05 100.97 53.95 103.04C55.86 105.1 55.38 106.21 59.5 107.49C63.62 108.75 69.8 111.61 69.8 111.61L67.11 105.9C67.11 105.9 61.4 103.84 59.34 102.57C57.29 101.3 55.38 99.06 55.22 98.6C55.06 98.12 53.95 96.7 53.95 96.7C53.95 96.7 58.71 98.12 60.14 98.6C61.56 99.06 62.99 99.23 64.25 100.02C65.52 100.81 66 101.3 66 101.3L66.02 101.2C65.88 99.63 64.94 98.2 64.65 96.63L63.51 91.34C62.6 93.15 60.8 92.91 59.52 94.2C58.71 95.15 57.57 94.2 56.67 95.02C54.91 94.44 52.96 95.25 51.29 94.35C48.83 94.25 46.6 93.05 45.5 90.77L45.5 86.78C44.69 86.78 44.41 88.07 43.55 88.25C41.27 89.35 39.28 87.73 37.18 87.49C34.62 85.97 32.39 84.02 32.39 80.83C31.25 79.83 31.11 78.22 31.11 76.83C32.1 74.88 32.1 72.07 34.76 71.26C36.37 70.36 38.32 70.17 40.23 69.98C38.37 68.07 35.19 66.41 35.81 63.13C36.71 60.13 38.8 56.8 41.84 55.51C44.26 55.79 46.55 55.46 48.92 54.94C51.39 56.46 54.38 58.94 54.38 62.13L54.62 62.36C54.95 59.28 55.8 55.85 58.94 54.13C60.9 54.37 62.93 53.94 64.55 55.37C66.74 55.65 67.54 57.94 69.68 58.46C71.92 60.89 74.34 64.36 72.87 67.83C72.53 69.22 71.4 70.36 70.11 70.93C71.35 71.17 72.73 71.17 73.53 72.4C74.43 73.46 73.82 75.02 74.82 76.17C75.24 78.36 75.67 81.54 73.53 82.93C73.53 84.02 73.2 85.02 72.53 85.88C70.25 86.78 68.45 89.25 65.69 88.64C66.12 93.25 67.36 97.73 68.97 101.77C68.87 98.82 68.45 95.3 70.02 92.64C70.92 91.15 71.49 89.35 72.87 88.25C74.77 93.54 73.25 99.25 72.39 104.48C71.92 107.91 74.06 110.86 76.05 113.38C76.05 108.63 76.43 103.91 76.62 99.34L77.1 97.2C77.29 93.39 79.09 89.39 77.76 85.4C76.48 80.59 76.58 75.16 78.57 70.69C79.81 67.89 80.33 64.7 80.7 61.65C85.22 66.69 83.42 74.12 81.42 79.83C80.7 82.45 80.33 85.54 80.85 88.4C83.03 78.73 89.83 70.69 92.11 60.99C88.02 54.56 81.33 51.61 74.01 52.08C72.2 52.04 70.5 52.52 68.87 52.52C69.97 50.6 72.2 48.56 74.58 47.95C78.33 47.38 81.7 48.61 84.13 51.28C82.94 44.75 79.85 38.14 74.01 34C76.43 34.57 78.85 35.71 81.18 36.85C86.7 40.24 87.55 46.28 88.26 51.85C89.12 54.08 90.68 56.22 92.49 58.22C92.82 56.32 91.92 54.65 91.92 52.75C90.83 47.85 92.06 42.24 94.96 38.14C96.2 39.9 95.49 42.71 96.01 44.85C95.96 48.18 95.25 51.32 95.11 54.46C95.58 49.14 98.81 43.47 104.32 41.99L105.6 41.9C106.74 46.52 105.79 50.94 102.75 54.37C100.04 56.85 97.67 58.84 95.44 61.56C99.62 66.36 104.94 70.27 110.26 73.22C106.94 67.75 108.55 59.94 105.37 54.23L105.46 54.13C111.5 57.32 112.58 63.98 113.35 70.12C113.64 71.79 112.54 73.4 114.25 74.69C118.01 77.93 122.52 80.02 127.6 80.4C128.27 79.73 128.12 78.5 128.17 77.4C128.12 72.4 127.88 67.5 124.42 63.84C121.66 60.7 118.48 57.84 114.82 56.17L112.54 53.79C113.82 53.23 115.63 53.85 117.1 54.13C120.28 54.89 123.94 55.85 125.66 59.03C126.51 60.55 126.7 62.46 127.7 63.84L127.84 63.84C128.7 58.84 128.41 53.18 128.98 48.18C128.79 47.51 128.84 46.52 128.5 45.8C127.13 47.42 126.42 50.18 123.94 50.56C122.52 52.08 119.85 52.23 117.91 51.61C114.91 51.13 112.78 47.89 111.4 45.66C111.35 42.81 110.17 39.38 112.63 37.09C109.93 37.14 107.08 36.19 105.94 33.56C104.18 31.24 105.32 28.34 106.27 26.01C106.18 24.19 107.03 22.67 108.08 21.1C110.02 19.39 113.35 19.58 115.86 20.1C116.2 20.29 116.53 20.53 116.86 20.77C116.68 18.34 115.44 14.87 118.34 13.44C119.81 12.58 121.19 10.06 123.27 11.54C125.27 12.35 127.7 10.73 129.41 12.53C131.35 13.01 132.74 14.82 133.97 16.3C134.49 17.1 133.92 18.34 134.44 19.15C135.73 17.86 137.48 16.91 139.44 17.34C141.19 17.81 143.43 18.44 143.9 20.53C144.52 23.58 147.93 25.91 146.66 29.33C146.37 31.05 146.56 33.28 144.7 33.99C144.19 34.19 143.66 34.14 143.23 34.48C144.19 34.9 144.66 35.9 145.04 36.76C145.08 39.19 145.04 42.09 144.23 44.42C142.05 45.8 141.76 48.47 139.58 49.66C138.1 50.18 136.4 50.66 134.78 50.13C133.26 49.13 131.88 48.13 131.02 46.47C130.55 53.89 129.79 62.36 131.26 69.4C131.97 69.22 132.06 68.07 132.5 67.36C134.3 62.22 135.49 56.84 136.16 51.28C137.01 51.37 136.82 52.32 137.16 52.85C138.77 59.89 139.01 68.74 134.78 74.79C134.02 75.45 133.11 75.93 132.16 75.68C132.35 78.25 131.69 80.87 132.74 82.92C134.54 81.78 135.96 79.82 137.29 78.35C142.19 72.07 144.8 64.78 144.23 56.41C145.26 56.44 145.66 57.46 146.18 58.13C147.61 60.74 147.89 64.12 146.41 66.79C145.65 67.74 144.99 68.74 144.47 69.79L144.7 69.97C149.45 66.69 153.49 62.36 156.77 57.65C156.16 57.08 154.97 57.36 154.16 56.99C149.17 55.84 146.09 50.66 144.7 46.23C149.22 46.6 154.11 47.66 156.54 51.7C157.1 52.99 157.68 54.27 158.63 55.37C160.43 53.08 161.67 50.52 163.38 48.18C162.33 46.03 161.28 43.9 160.76 41.56C158.01 39.66 155.06 37.8 154.4 34.24C153.74 31.28 152.74 27.81 153.5 25.01L153.83 25.01C157.35 28.19 163.61 30.14 163.28 35.95L162.71 39.52C163.28 41.7 163.9 43.94 165.09 45.89C168.75 40.56 170.65 34.52 171.36 27.95C171.6 25.62 170.27 23.95 169.46 22.01C166.42 16.67 159.45 7.93 158.06 3.3L158.4 3.3C160.8 4.01 167.92 6.32 170.34 12.26L171.81 16.77C171.98 17.05 171.93 17.88 172.09 18.47C172.25 19.06 172.39 19.81 172.77 18.93C172.77 18.93 172.28 13.6 172.62 10.99C172.96 8.39 175.67 4.99 175.56 0C175.56 0 177.48 3.06 177.6 6.91C177.71 10.77 176.92 14.73 175.79 17C174.66 19.27 175.37 20.66 175.37 20.66C176.27 21.42 178.62 15.7 179.1 12.56C179.29 12.61 179.33 12.27 179.47 12.56C181.24 15.51 180.02 19.42 178.76 22.26C178 24.07 175.44 24.34 174.92 26.24C173.16 34.33 171.03 42.28 167.03 49.42C170.07 53.99 173.93 58.22 175.59 63.36C176.63 67.34 177.87 67.26 177.87 67.26C183.18 70.88 189.46 75.26 192.6 81.3C192.97 79.45 192.93 77.21 192.36 75.5C189.22 72.07 186.67 70.69 186.53 66.08C186.81 64.22 186.31 61.22 187.45 59.79L188.16 60.51C189.59 63.56 191.03 64.92 191.79 68.3C192.12 69.3 192.65 71.77 193.27 72.62C193.79 68.2 194.92 62.6 194.16 58.13C191.79 56.42 188.99 56.56 186.09 57.08L185.62 57.11C180.65 56.89 178.68 51.51 178.68 51.51C175.73 47.89 175.59 43.13 175.15 38.48L175.59 38.14C180.72 42.37 181.86 49.13 187.46 52.85C189.56 53.89 191.7 54.94 194.16 55.13C195.02 53.74 194.49 51.56 194.64 49.8C192.31 49.08 191.13 46.52 189.42 44.84C188.46 43.85 188.8 42.42 189.03 41.23C187.75 41.75 185.56 42.18 184.28 41.09C183.47 38.8 180.15 38.62 180.38 35.85C180.91 34.85 179.96 34.23 179.72 33.42C178.63 30.66 181.57 28.95 181.43 26.23C182.33 25.19 183.13 24.48 184.47 24.1C185.47 24.1 186.32 24.48 187.22 24.66C187.46 23.77 186.28 23.52 186.09 22.72C184.71 20.67 184.14 17.62 185.75 15.53C187.65 13.19 190.31 11.77 193.16 11.29C195.54 11.68 197.88 11.62 200.34 11.62C201.53 12.29 202.81 13.1 203.19 14.48C203.38 15.58 203.24 16.39 203.28 17.58L203.52 17.58C204.99 15 207.65 12.53 210.7 12.87C212.27 13.34 213.88 13.67 215.08 15.05C216.78 17.44 217.68 20.14 218.25 23.05C219.2 24.77 218.49 27 217.54 28.42C216.92 29.09 216.26 29.66 215.5 30.14C216.54 30.62 217.87 31.19 218.35 32.28C218.3 34.62 218.25 37.23 216.88 39.13C216.3 41.13 214.17 42.42 213.36 44.28C212.41 45.03 211.03 44.66 210.13 45.56C208.27 45.99 207.08 44.52 205.95 43.52C205.66 45.8 205.23 48.37 202.95 49.41C201.58 50.41 199.39 49.89 197.96 50.37C197.73 56.5 196.83 63.41 197.82 69.07L197.96 69.22C200.53 66.74 205.8 64.03 204.99 59.5C204.76 57.03 204.66 53.5 206.85 51.51C208.75 49.65 210.93 47.99 213.22 46.8C213.36 50.46 214.36 55.89 211.08 58.79C210.22 59.69 209.27 60.41 208.56 61.41C210.08 60.93 211.46 59.32 212.98 58.46C213.79 58.04 214.54 57.5 215.25 56.84C214.54 54.65 215.16 51.94 215.64 49.66L215.83 49.66C216.35 51.42 216.59 53.32 217.45 54.94C218.87 53.36 220.48 51.66 219.48 49.42C218.92 44.52 220.43 39.47 223.48 35.7C224.86 39.66 225.47 44.61 222.91 48.18L222.48 50.23C223.58 49.89 224.58 48.8 225.33 47.71C229.7 42.85 228.23 36.43 227.47 30.38C226.85 26.19 225.05 21.01 227.7 17.44L228.27 17.81C233.41 24.57 235.45 34.1 231.36 41.99C230.75 43.32 230.04 44.61 229.51 45.99C230.23 46.17 230.98 45.75 231.46 45.09C237.39 38.38 242.53 28.71 252.08 28.28C251.84 28.62 251.51 29.05 251.08 29.43C244.33 36.14 241.63 47.23 231.79 50.23C227.18 51.99 222.39 53.7 218.68 57.56C221.2 62.65 225.32 67.17 229.42 71.5C228.71 68.36 229.23 65.46 229.65 62.22C229.99 59.03 228.8 56.46 227.61 53.89C230.32 54.37 233.55 56.65 234.41 59.6C236.54 65.27 229.94 69.83 233.07 75.5C233.74 76.59 234.83 77.35 235.69 78.35C235.55 77.35 235.02 76.07 235.21 74.93C235.45 72.83 236.31 70.5 235.35 68.5L235.69 68.5C238.16 71.07 241.06 73.88 240.02 77.88C237.82 83.02 242.34 86.78 244.67 90.77C245.14 90.25 245.33 89.49 245.48 88.73C246.24 84.21 247.57 79.88 248.66 75.5C247.66 74.97 246.9 76.16 245.81 75.59C243.62 75.45 242.11 73.6 240.67 72.16C238.82 70.74 240.02 67.93 237.74 66.79C237.83 65.17 236.92 62.93 238.07 61.42C239.25 60.22 240.54 58.79 242.2 58.37C241.72 57.89 240.82 57.89 240.25 57.41C239.31 56.46 237.78 55.94 237.07 54.71C235.78 50.66 238.97 48.04 241.06 45.23C242.39 44.38 243.62 43.28 245.38 43.37C246.95 42.66 248.94 43.13 250.18 44.28L250.51 44.66C250.9 43.42 250.99 42.09 251.98 41.09C253.27 39.19 255.4 41.38 256.88 39.85C258.45 39.99 260.21 40.19 261.01 41.8C264.05 41.28 264.48 44.99 267.14 45.8C268 46.94 267.57 48.18 267.85 49.57C267.71 50.6 267.28 51.51 266.81 52.42C268.38 52.04 270.28 51.51 271.71 52.85C273.31 54.23 272.27 56.32 272.75 57.99C274.13 59.99 271.13 61.32 272.03 63.27C272.03 65.22 271.51 67.22 269.66 68.26C268.71 68.64 267.33 68.64 266.33 68.26C266.43 69.17 267.19 70.31 266.47 71.26C265.86 72.74 265.53 74.93 263.48 75.26C261.92 77.83 259.3 77.31 257.03 78.36C254.84 77.74 252.08 77.07 251.42 74.45C250.51 77.6 249.61 80.78 249.06 84.1C249.06 84.1 251.01 82.5 253.96 82.27C256.9 82.04 258.48 79.78 258.48 79.78C258.48 79.78 258.93 86.35 254.41 86.8C249.89 87.26 248.83 85.46 248.56 88.4L245.72 103.81L245.95 104.05C250.84 98.91 249.92 97.46 254.82 91.2L255.51 90.2C257.5 87.83 260.4 86.07 263.4 85.3C266.57 84.55 270.13 82.26 271.28 78.93C271.99 75.59 270.99 70.98 273.42 68.07C274.51 66.27 276.17 64.22 278.12 63.27C279.59 66.93 280.88 71.98 277.88 75.36C276.07 77.49 272.32 79.11 272.18 82.45C273.75 83.59 275.42 82.35 276.74 81.54C282.16 76.17 285.2 68.07 293.13 66.36C289.29 70.12 289.29 75.74 285.15 79.25C283.3 81.21 280.74 81.92 278.45 83.02C282.35 83.73 286.25 83.07 289.05 80.5C292.38 77.22 296.6 75.5 301.11 75.83C301.11 79.93 297.75 83.69 294.18 85.78C288.29 89.01 281.92 84.44 275.6 85.3C274.6 85.69 273.37 85.58 272.42 86.12C277.31 87.73 281.25 91.63 286.67 92.06C291.57 92.91 297.36 92.91 302.4 92.06L302.07 92.82C299.4 96.2 295.08 99.01 290.19 97.63C286.24 96.97 283.2 93.77 279.26 93.54C282.92 99.01 290.62 97.39 293.84 103.48C295.41 105.63 295.7 108.81 295.65 111.24C294.75 111.91 293.27 111.19 292.14 111.1C287.15 109.58 283.54 104.63 282.67 99.68C282.3 98.91 281.68 98.05 280.82 97.63L280.6 97.87C281.02 101.77 282.16 106.82 278.78 110.09C277.5 111.1 276.36 112.77 274.79 112.71C273.31 109.81 272.56 105.66 274.79 102.91C276.07 100.48 279.83 97.96 277.41 94.77C276.13 91.63 272.99 89.3 269.99 88.06C266.57 87.45 263.01 87.97 260.21 89.54C263.01 89.11 265.96 89.92 267.96 91.91C268.91 93.05 269.9 94.25 270.14 95.68C271.89 96.15 274.13 95.63 275.7 96.63L275.6 96.97L270.47 98.91C269.66 101.53 267.95 104.05 265.58 105.77C264.82 104.38 266.06 102.81 266.15 101.29C261.67 104.45 255.13 102.59 250.33 105.16C248.26 106.25 246.51 109.48 245.38 112.14C240.16 121.23 241.94 124.84 235.53 133.41L234.16 136.05C236.06 135.8 237.59 134 239.21 132.72C246.48 126.9 252.13 122 255.83 112.73C256.21 117.53 257.45 123.38 254.12 127.24C248.04 138.57 239.65 137.12 230.48 143.25C225.49 146.16 215.8 153.59 211.94 158.07C213.79 157.88 215.69 157.17 217.64 156.92C225.86 155.4 230.28 153.12 237.49 149.26C238.4 148.6 239.25 147.89 240.25 147.56C240.16 149.4 238.26 150.84 237.16 152.36C232.03 158.45 227.9 162.44 219.59 162.73C216.12 163.21 212.18 163.44 208.66 163.68C199.25 167.58 187.89 175.11 178.77 179.77C178.77 180.25 177.91 180.1 178.2 180.77C180.82 180.63 183.39 179.06 186.09 178.49C194.03 175.91 202 173.35 210.6 172.35C217.3 171.26 224.33 170.97 229.42 165.92C234.89 161.07 239.96 153.93 247.33 152.12C249.09 151.74 250.85 151.21 252.65 150.98L252.89 151.21C244.38 155.84 240.44 165.25 231.94 169.68C237.07 169.4 234.15 170.4 241.52 168.85C242.9 168.63 247.19 167.78 247.19 167.78C248.42 167.92 249.56 167.11 250.76 166.73C256.74 163.16 263.25 160.5 268.61 155.64C270.42 153.03 272.51 150.41 271.37 146.74C269.76 141.74 268.33 135.08 272.18 130.65C273.08 129.66 273.89 128.99 274.89 128.23L275.03 128.37C270.33 134.51 277.07 140.41 275.84 146.98L275.84 147.32C276.6 146.98 276.78 145.7 277.07 144.79C277.12 140.84 273.99 134.18 279.59 132.22C279.78 132.75 279.07 133.66 279.02 134.42C278.07 139.18 282.97 143.36 279.92 147.98C281.21 147.32 282.49 146.18 283.35 144.93C281.59 143.26 283.06 140.65 281.64 138.84C280.68 135.46 283.35 132.31 285.96 130.42C284.01 129.99 282.54 128.47 281.73 126.65C281.82 124.94 280.54 122.94 281.96 121.51C283.58 118.94 285.01 115.75 287.81 114.28C291.47 114.23 295.79 111.48 298.83 115.08C299.4 115.85 299.93 116.61 300.11 117.51C301.11 115.99 301.11 113 303.63 112.81C306.53 111.86 308.81 113.43 311.28 114.52C313.75 115.28 315.93 117.94 316.32 120.47C316.94 122.65 316.32 124.8 314.61 126.27C317.03 125.94 319.65 126.61 320.88 128.8C322.06 131.08 320.55 133.56 321.45 135.89C321.5 138.41 318.79 139.56 318.22 141.84C317.46 143.41 315.84 142.93 314.61 143.31C313.52 143.41 312.99 142.27 311.85 142.5C311.61 143.64 312.42 145.12 311.38 146.07C310.24 147.64 307.86 147.46 307.39 149.5C304.3 153.74 299.83 150.11 295.98 149.93C294.27 149.36 293.98 147.56 293.7 146.07C293.84 144.88 294.27 143.88 294.75 142.84C292.8 144.88 289.99 145.6 287.24 146.07C286.81 145.7 286.01 145.84 285.53 145.93C280.82 150.98 274.75 155.64 268.99 159.64C277.07 158.45 283.3 163.83 290.99 164.54C293.65 164.44 296.65 164.25 298.08 161.83C298.41 160.68 297.6 159.74 296.94 158.83C296.17 157.97 294.79 157.83 294.08 157.11C296.08 156.59 298.26 156.65 300.11 157.5C301.07 158.07 301.64 159.11 301.25 160.21C301.22 160.31 301.11 160.36 301.11 160.44C304.96 159.4 308.05 155.88 311.61 153.93C311.61 153.93 313.91 152.81 317.08 152.21C318.5 151.98 320.74 151.74 322.35 151.98C320.36 153.31 317.98 153.93 316.32 155.64C315.33 156.04 310.47 159.31 310.47 159.31C304.87 163.26 299.36 167.35 292.14 167.4L292.56 167.97C296.13 171.01 300.41 173.51 304.78 171.07C304.78 171.07 306.68 169.38 312.78 163.22C315.34 161.29 317.85 161.34 322.58 163.76C325.03 165.02 324.68 167.87 324.88 168.92C319.6 167.87 314.56 168.77 310.72 172.2C308.67 173.59 306.39 174.44 304.11 175.2C308.05 176.82 313.09 177.58 316.99 175.3C320.83 173.01 326.25 171.83 330.43 174.16C331.62 174.97 332.57 175.97 333.19 177.25C332.1 177.11 330.81 176.15 329.53 175.87C327.44 175.68 325.01 175.63 323.35 176.68C327.68 177.15 331.86 179.54 333.99 183.53C335.18 185.96 335.52 188.62 334.99 191.53ZM169.12 138.71L169.45 138.37C169.74 138.23 169.83 138.61 170.02 138.71C171.55 144.85 172.64 151.61 172.64 158.37C174.49 154.65 176.77 147.13 178.1 143.22C178.48 140.98 180 139.08 179.57 136.7C175.11 131.8 174.73 124.7 175.92 118.08C177.2 113.62 176.71 113.85 179.13 109.95C179.56 109.77 179.7 110.24 179.94 110.38C179.8 118.04 182.05 121.85 183.33 129.71C185.56 122.95 187.17 115.85 189.41 109.06C189.56 108.15 190.27 107.05 189.5 106.19C188.17 105.48 185.97 104.51 184.97 103.12C180.83 96.41 180.33 87.87 184.95 81.07C185.13 80.87 185.52 80.93 185.61 81.21C185.13 88.73 188.08 95.77 191.88 101.87C192.12 94.77 191.64 88.63 189.03 82.45C187.83 80.59 187.98 80.37 186.4 78.85C186.4 78.85 185.17 76.83 182.76 76.98C182.76 76.98 173.03 78.8 167.61 82.42C162.18 86.05 155.01 80.46 155.01 80.46C155.01 80.46 160.24 78.34 166.55 74.87C172.45 71.62 179.98 73.52 180.69 73.78C178.63 72.22 176.63 71.11 174.58 69.79L171.26 67.03C167.61 64.46 164.05 61.61 160.2 59.37C156.25 64.07 151.88 68.21 147.56 72.26C148.32 71.89 148.98 71.26 149.83 71.03C155.4 70.02 160.96 67.94 165.99 65.76L165.89 66.22C165.89 67.03 165.56 67.69 164.99 68.26C159.34 75.07 150.69 76.07 143.09 78.93L140 81.54C136.1 85.82 132.63 91.44 134.78 97.77L136.39 103.58C137.34 111.15 137.28 111.6 140.14 117.88C139.43 108.17 145.18 99.75 143.56 90.28C143.46 90.09 143.84 89.52 144.27 89.71C146.13 92.75 147.32 96.13 148.12 99.65C149.97 107.22 148.17 115.26 144.03 121.31C143.94 124.69 147.08 135.03 147.89 138.18C149.69 143.27 151.36 148.4 154.4 153.03L154.5 151.98C152.36 144.89 154.87 137.74 156.68 131.32C157.2 129.51 157.01 127.47 157.68 125.7C158.2 125.46 158.29 126.18 158.72 126.41C161.53 133.56 162.29 143.84 159.2 150.98C158.58 153.51 155.78 155.41 156.68 158.26C157.4 165.87 161.38 172.16 162.47 179.63C162.72 180.16 162.91 180.97 163.52 181.01C164.85 179.54 165.04 177.63 166.04 175.97C167.8 171.01 169.6 169.98 169.32 164.31C163.1 156.75 166.94 146.89 169.12 138.71ZM157.68 178.63C157.77 173.92 155.64 169.36 153.36 165.26C153.36 165.26 152.07 161.12 151.31 158.08C149.03 153.17 146.75 148.32 144.47 143.41C143.76 142.22 143.14 141.13 141.86 140.37C131.64 134.85 123.57 124.66 122.24 113.28C122.52 113.1 122.05 112.33 122.71 112.48C126.46 120.04 135.16 125.27 139.67 131.56C138.15 127.75 136.77 123.85 135.59 119.9C133.55 115.42 133.77 110.73 130.77 105.28C129.95 102.67 127.83 101.53 126.08 99.58C124.89 99.21 120.77 97.3 118.66 93.6C117.75 92.01 113.46 90.66 113.46 90.66C113.46 90.66 115.5 88.73 117.53 88.85C126.37 89.29 128.84 93.62 128.84 93.62C130.31 96.49 129.93 100.2 132.41 102.53C132.12 100.44 131.45 98.48 131.27 96.4C130.31 92.82 131.02 87.97 126.7 86.44L123.04 84.5C120.01 82.83 116.91 81.44 113.68 80.25C108.74 80.93 103.23 81.21 98.86 79.11L98.05 81.78C95.58 91.01 84.66 92.82 80.28 100.39C78.78 102.64 79.14 104.72 79.14 104.72C78.91 110.29 78.19 116.94 84.37 119.8L84.04 119.09C84.04 119.09 82.91 112.64 85.86 106.75C88.79 100.86 90.16 97 90.16 97C90.16 97 93.77 103.8 92.19 109.01C90.61 114.22 83.91 118.12 89.97 123.08C93.21 127.56 102.87 135.63 107.14 138.72L106.67 137.91C105.24 131.06 101.25 125.3 98.25 119.06C98.25 118.44 97.54 117.83 98.11 117.25C98.25 117.44 98.54 117.3 98.68 117.34C106.09 123.58 112.27 131.1 114.31 140.1C115.93 149.01 127.33 153.62 133.7 157.9C130.28 153.91 130.47 148.38 129.14 143.48C128.29 140.58 126.67 137.92 126.29 134.92C129.28 136.63 131.28 139.06 133.46 141.67C138.55 148.44 137.03 158.14 142.82 164.42C150.19 170.89 151.5 170.72 157.68 178.63ZM82.66 92.06C83.33 90.72 84.51 89.49 85.74 88.63C90.07 86.26 94.23 82.46 97.03 78.55C95.46 77.98 92.54 76.55 91.35 75.5C93.06 73.88 95.39 73.88 97.48 73.22C102.61 72.93 106.32 76.07 110.73 77.54L111.73 77.54L111.73 77.21C105.6 73.54 99.28 69.36 94.39 63.69C93.68 65.22 93.25 66.84 92.11 68.17C88.22 75.79 85.12 83.78 82.66 92.06ZM161.34 57.99L172.64 64.07C171.55 59.51 167.66 56.03 165.47 52.08C163.85 53.94 163.05 56.17 161.34 57.99ZM250.39 101.63C259.41 95.61 256.72 96.68 265.44 95.91C265.48 95.11 264.87 94.58 264.43 93.96C262.82 92.77 260.82 91.54 258.59 91.91C255.83 92.49 255.39 94.32 253.49 96.74C251.76 99.34 252.65 98.58 250.39 101.63ZM190.68 165.94C192.58 164.03 192 162.58 192.38 160.3C192.38 150.03 198.08 147.73 205.63 142.12L206.3 142.12C206.3 142.55 206.07 142.89 205.97 143.26C200.89 150.06 200 151.94 197.39 159.75C197.16 160.76 196.73 161.99 197.05 162.94C203.47 159.04 210.84 152.55 216.21 146.98L216.64 145.7C216.35 142.51 216.35 139.7 215.73 136.47C215.12 127.99 220.68 120.85 227.24 115.66C227.57 115.47 228.09 115.09 228.38 115.57C227.52 117.81 226.28 119.94 225.43 122.19C222.06 128.56 224.24 137.23 220.77 143.55C227.95 136.55 233.7 128.61 235.55 119.23C235.16 114.81 230.65 112.1 229.75 107.91C227.05 102.34 230.42 96.34 233.98 92.06C232.75 100.34 237.16 106.91 238.54 114.42C240.02 109.72 241.63 104.91 242.39 100.06C243.44 95.73 241.92 91.2 238.31 88.16C237.97 87.63 237.26 87.92 237.07 87.35C231.56 86.58 225.76 86.92 221.2 83.59C215.55 80.02 213.94 73.79 212.89 68.07C213.03 67.83 213.23 67.78 213.46 67.83L216.88 71.83C222.72 77.21 229.28 82.07 236.36 84.16C235.41 82.63 234.7 81.54 233.42 80.25C230.61 76.55 226.05 75.4 222.82 72.26C219.06 69.17 216.65 64.65 215.74 59.94C212.03 62.98 207.9 65.36 204 68.17C201.3 70.17 199.01 72.65 198.06 75.69C196.64 83.21 196.95 81.6 197.23 89.84C201.7 83.55 205.78 77.09 208.45 70.08L209.11 69.28C209.54 69.9 209.26 70.94 209.35 71.56C208.82 78.8 208.72 83.48 204.63 89.29C203.26 92.19 199.34 93.06 197.35 95.35C194.83 100.54 191.36 117.61 189.51 123.09C194.4 116.66 201.3 108.69 206.72 102.55C207.66 102.74 207.23 105.91 207.52 106.67C206.85 112.43 204.33 114.5 200.91 119.12C197.15 125.02 191.36 124.98 187.56 130.55C185.32 135.79 181.14 145.55 179.72 151.07C186.6 145.55 193.31 139.18 199.53 132.22C199.44 136.7 197.77 140.74 195.78 144.56C192.17 151.21 185.87 153.29 179.23 155.35C177.27 158.44 175.35 163.4 173.87 166.73C172.55 171.78 170.6 176.58 169.46 181.68C175.54 172.83 183.84 173.51 190.68 165.94Z" /></g></g></svg>